<?xml version="1.0" standalone="no"?>
<!DOCTYPE svg PUBLIC "-//W3C//DTD SVG 20010904//EN"
 "http://www.w3.org/TR/2001/REC-SVG-20010904/DTD/svg10.dtd">
<svg version="1.0" xmlns="http://www.w3.org/2000/svg"
 width="512.000000pt" height="512.000000pt" viewBox="0 0 512.000000 512.000000"
 preserveAspectRatio="xMidYMid meet">

<g transform="translate(0.000000,512.000000) scale(0.100000,-0.100000)"
fill="#000000" stroke="none">
<path d="M1309 3369 c-91 -14 -173 -77 -220 -169 -18 -35 -23 -62 -23 -120 -1
-122 54 -213 167 -272 60 -33 194 -33 254 0 66 35 110 79 140 140 39 79 39
184 1 257 -62 121 -187 185 -319 164z"/>
<path d="M2509 3370 c-93 -16 -173 -79 -220 -170 -18 -35 -23 -62 -23 -120 -1
-122 54 -212 167 -272 35 -19 58 -23 132 -23 80 0 95 3 137 27 108 64 164 168
156 287 -13 181 -171 303 -349 271z"/>
<path d="M3680 3367 c-136 -39 -229 -171 -218 -311 13 -158 140 -276 298 -276
114 0 214 62 268 164 22 43 27 64 27 131 0 95 -22 152 -82 212 -76 76 -194
108 -293 80z"/>
</g>
</svg>
