<?xml version="1.0" standalone="no"?>
<!DOCTYPE svg PUBLIC "-//W3C//DTD SVG 20010904//EN"
 "http://www.w3.org/TR/2001/REC-SVG-20010904/DTD/svg10.dtd">
<svg version="1.0" xmlns="http://www.w3.org/2000/svg"
 width="512.000000pt" height="512.000000pt" viewBox="0 0 512.000000 512.000000"
 preserveAspectRatio="xMidYMid meet">

<g transform="translate(0.000000,512.000000) scale(0.100000,-0.100000)"
fill="#FF434A" stroke="none">
<path d="M2404 5009 c-507 -32 -1001 -223 -1389 -536 -115 -93 -303 -282 -395
-398 -240 -303 -425 -711 -489 -1080 -143 -826 106 -1623 689 -2205 200 -201
381 -334 631 -464 213 -111 499 -210 611 -210 65 -1 100 19 133 75 19 32 20
52 20 354 0 304 -1 322 -20 355 -38 64 -70 74 -255 80 -160 5 -167 6 -234 38
-69 32 -156 111 -240 217 l-31 39 48 -33 c66 -45 180 -96 248 -111 33 -7 98
-11 160 -8 151 6 231 46 282 143 16 31 22 63 25 147 7 173 -19 206 -213 273
-369 128 -655 397 -755 710 -34 108 -40 321 -11 436 36 141 100 261 206 384
29 33 58 71 65 84 18 35 14 108 -10 176 -28 82 -35 160 -20 242 12 65 37 143
46 143 3 0 28 -12 57 -26 77 -39 164 -104 231 -173 90 -94 111 -96 306 -38
154 45 270 60 460 60 199 -1 344 -22 502 -73 52 -16 108 -30 124 -30 46 1 105
34 159 90 86 90 237 192 256 173 19 -19 39 -118 39 -190 0 -46 -9 -109 -26
-170 -36 -142 -31 -163 88 -309 230 -285 266 -596 108 -920 -134 -276 -398
-483 -769 -604 -140 -45 -155 -52 -198 -93 -43 -41 -43 -79 1 -194 21 -53 39
-124 45 -173 6 -48 11 -278 11 -525 0 -414 2 -443 20 -483 15 -33 29 -47 62
-62 55 -25 65 -25 180 5 438 114 815 330 1138 654 215 216 341 392 475 666
114 231 189 472 232 737 26 163 26 597 0 753 -44 262 -119 496 -233 725 -237
476 -626 862 -1109 1101 -305 150 -598 225 -970 249 -88 5 -162 9 -165 8 -3 0
-59 -4 -126 -9z m471 -273 c498 -73 903 -276 1260 -631 327 -326 528 -719 612
-1200 25 -143 25 -536 0 -690 -64 -397 -205 -730 -446 -1049 -99 -131 -173
-210 -305 -323 -202 -173 -436 -312 -676 -401 -58 -22 -119 -43 -137 -46 l-31
-7 -5 423 c-4 421 -5 431 -41 568 -6 24 -3 26 71 50 43 14 126 48 186 77 489
236 775 632 794 1098 8 189 -25 342 -110 510 -34 69 -114 189 -158 240 l-31
35 18 73 c26 98 26 288 1 372 -15 48 -139 329 -153 344 -5 5 -168 -62 -249
-102 -82 -40 -211 -126 -274 -183 l-51 -46 -98 26 c-170 45 -290 59 -502 59
-210 0 -312 -12 -493 -59 l-97 -26 -63 58 c-85 79 -176 136 -330 206 l-132 60
-69 -74 c-80 -84 -124 -170 -152 -293 -24 -106 -24 -269 0 -351 l18 -61 -67
-89 c-77 -102 -165 -276 -194 -383 -60 -220 -45 -486 39 -694 134 -328 445
-613 833 -763 84 -32 97 -41 95 -58 -3 -19 -11 -21 -71 -24 -98 -4 -162 18
-270 93 -215 151 -234 162 -293 173 -61 12 -516 64 -520 59 -7 -7 288 -415
355 -492 44 -49 98 -115 122 -145 62 -81 199 -210 262 -248 95 -57 188 -84
317 -91 l115 -6 3 -162 c2 -137 0 -163 -12 -163 -33 0 -231 79 -366 146 -453
226 -800 574 -1023 1026 -182 369 -261 818 -212 1198 59 451 196 797 444 1117
377 488 927 794 1551 862 112 13 409 5 535 -13z"/>
</g>
</svg>
