<?xml version="1.0" standalone="no"?>
<!DOCTYPE svg PUBLIC "-//W3C//DTD SVG 20010904//EN"
 "http://www.w3.org/TR/2001/REC-SVG-20010904/DTD/svg10.dtd">
<svg version="1.0" xmlns="http://www.w3.org/2000/svg"
 width="500.000000pt" height="500.000000pt" viewBox="0 0 500.000000 500.000000"
 preserveAspectRatio="xMidYMid meet">

<g transform="translate(0.000000,500.000000) scale(0.100000,-0.100000)"
fill="#FF434A" stroke="none">
<path d="M1388 4489 c-79 -8 -200 -35 -228 -50 -8 -5 -33 -16 -55 -24 -204
-81 -439 -316 -520 -520 -8 -22 -19 -47 -24 -55 -16 -29 -41 -146 -51 -240
-13 -127 -13 -2073 0 -2200 17 -157 35 -216 114 -370 85 -167 238 -319 406
-406 153 -79 212 -97 370 -114 127 -13 2073 -13 2200 0 94 10 216 36 235 50 6
4 38 17 73 30 34 12 62 26 62 30 0 4 19 16 42 26 56 25 181 132 255 219 53 61
133 199 170 290 23 55 43 149 53 245 13 130 13 2055 0 2191 -11 101 -35 224
-50 244 -3 6 -13 26 -20 45 -7 19 -36 76 -63 125 -67 119 -225 279 -343 348
-44 26 -84 47 -87 47 -4 0 -30 11 -57 24 -67 32 -154 53 -270 66 -114 12
-2098 11 -2212 -1z m2291 -341 c185 -57 342 -191 423 -361 66 -137 63 -73 63
-1287 0 -1166 0 -1152 -45 -1248 -9 -20 -25 -53 -34 -73 -40 -86 -179 -225
-265 -265 -20 -9 -53 -25 -73 -34 -96 -45 -82 -45 -1248 -45 -1126 0 -1165 1
-1230 36 -8 5 -40 19 -70 33 -157 71 -305 255 -351 436 -20 80 -21 2237 0
2320 32 132 123 271 235 362 106 85 183 118 336 142 14 2 515 3 1115 2 981 -2
1095 -3 1144 -18z"/>
<path d="M3494 3809 c-60 -23 -105 -65 -134 -125 -18 -37 -21 -58 -18 -119 3
-62 8 -80 33 -117 50 -71 104 -102 185 -106 39 -3 85 1 107 8 95 32 163 129
163 234 0 69 -18 111 -71 166 -78 80 -162 99 -265 59z"/>
<path d="M2390 3490 c-609 -75 -1002 -648 -855 -1247 10 -37 21 -72 26 -77 5
-6 9 -15 9 -22 0 -14 42 -105 71 -154 72 -121 228 -280 329 -336 19 -10 42
-24 50 -30 24 -18 159 -72 225 -89 158 -41 359 -40 520 3 74 20 190 66 215 86
8 6 31 20 50 30 98 54 254 212 322 325 101 168 140 314 140 521 1 103 -4 155
-20 221 -21 88 -75 232 -95 259 -7 8 -21 31 -31 50 -27 49 -129 166 -190 219
-74 64 -179 130 -265 166 -148 62 -354 93 -501 75z m285 -344 c225 -61 420
-260 476 -486 17 -71 17 -249 0 -320 -56 -225 -252 -427 -471 -486 -80 -21
-262 -24 -340 -5 -229 55 -433 260 -491 491 -17 70 -17 248 0 320 31 131 121
269 236 363 92 76 188 116 335 141 43 8 203 -4 255 -18z"/>
</g>
</svg>
