<?xml version="1.0" standalone="no"?>
<!DOCTYPE svg PUBLIC "-//W3C//DTD SVG 20010904//EN"
 "http://www.w3.org/TR/2001/REC-SVG-20010904/DTD/svg10.dtd">
<svg version="1.0" xmlns="http://www.w3.org/2000/svg"
 width="512.000000pt" height="512.000000pt" viewBox="0 0 512.000000 512.000000"
 preserveAspectRatio="xMidYMid meet">

<g transform="translate(0.000000,512.000000) scale(0.100000,-0.100000)"
fill="#ffffff" stroke="none">
<path d="M723 5105 c-35 -8 -93 -28 -130 -46 -93 -45 -217 -169 -261 -261 -66
-135 -62 -14 -60 -2120 l3 -1913 21 -46 c28 -60 93 -125 153 -153 45 -21 54
-21 741 -24 382 -1 706 0 718 3 38 9 72 53 72 92 0 37 -21 76 -48 90 -9 4
-329 10 -709 13 l-693 5 -27 28 -28 27 0 1908 c0 1792 1 1910 18 1957 24 69
82 143 147 187 106 72 6 68 1683 68 l1508 0 -29 -42 c-37 -54 -69 -117 -90
-177 -15 -42 -17 -206 -22 -1741 l-5 -1695 -23 -37 c-25 -41 -91 -78 -138 -78
-41 1 -107 32 -132 64 -11 15 -59 143 -107 286 -92 275 -113 316 -187 370
-123 89 -299 72 -406 -41 -50 -52 -77 -119 -87 -216 l-7 -73 -265 0 c-175 0
-272 -4 -286 -11 -75 -39 -75 -139 0 -178 14 -7 111 -11 287 -11 l266 0 0
-222 c0 -257 13 -442 35 -531 26 -98 68 -206 211 -543 3 -5 18 -18 35 -28 42
-25 90 -14 124 26 36 43 32 64 -58 278 -82 195 -112 280 -127 358 -7 41 -13
491 -10 919 0 51 4 67 26 92 44 53 134 51 170 -4 8 -12 52 -135 99 -275 47
-139 94 -267 104 -284 57 -91 174 -164 279 -173 125 -12 262 53 334 158 70
103 68 73 68 1048 l0 875 31 -30 c65 -60 217 -234 252 -287 95 -143 158 -291
194 -457 16 -78 18 -146 18 -805 0 -655 -2 -729 -18 -824 -23 -130 -66 -275
-119 -406 -47 -112 -50 -144 -21 -183 39 -53 122 -51 157 3 41 63 120 284 156
438 45 192 50 281 50 984 0 801 -4 839 -109 1097 -84 206 -170 325 -413 572
l-178 181 0 46 0 46 368 3 c351 3 369 4 413 24 60 28 125 93 153 153 20 45 21
59 24 522 3 530 0 564 -60 687 -44 92 -168 216 -260 260 -134 65 -27 62 -1973
61 -1452 0 -1781 -3 -1832 -14z m3677 -210 c64 -22 139 -82 182 -145 67 -97
69 -121 66 -629 l-3 -451 -28 -27 -27 -28 -351 -3 -350 -3 3 508 c3 454 5 513
21 553 41 106 149 205 257 235 65 18 163 14 230 -10z"/>
<path d="M925 4561 c-48 -22 -79 -54 -100 -103 -22 -55 -22 -541 0 -596 21
-49 52 -81 100 -103 36 -17 69 -19 298 -19 284 0 303 3 365 63 54 52 62 100
62 357 0 257 -8 305 -62 357 -62 60 -81 63 -365 63 -229 0 -262 -2 -298 -19z
m525 -401 l0 -220 -220 0 -220 0 0 220 0 220 220 0 220 0 0 -220z"/>
<path d="M2045 3929 c-74 -43 -73 -140 4 -179 72 -37 159 47 127 123 -7 18
-20 38 -29 45 -22 18 -78 24 -102 11z"/>
<path d="M2504 3930 c-56 -22 -72 -108 -30 -157 l24 -28 369 -3 c202 -2 379 0
391 3 13 3 35 18 48 32 43 46 27 121 -33 152 -26 13 -736 14 -769 1z"/>
<path d="M925 3361 c-48 -22 -79 -54 -100 -103 -22 -55 -22 -541 0 -596 21
-49 52 -81 100 -103 36 -17 69 -19 298 -19 284 0 303 3 365 63 54 52 62 100
62 357 0 257 -8 305 -62 357 -62 60 -81 63 -365 63 -229 0 -262 -2 -298 -19z
m525 -401 l0 -220 -220 0 -220 0 0 220 0 220 220 0 220 0 0 -220z"/>
<path d="M2045 2728 c-74 -40 -73 -139 2 -177 31 -16 1195 -16 1226 0 35 18
57 51 57 89 0 38 -22 71 -57 89 -30 15 -1200 15 -1228 -1z"/>
<path d="M925 2161 c-48 -22 -79 -54 -100 -103 -22 -55 -22 -541 0 -596 21
-49 52 -81 100 -103 36 -17 69 -19 298 -19 284 0 303 3 365 63 54 52 62 100
62 357 0 257 -8 305 -62 357 -62 60 -81 63 -365 63 -229 0 -262 -2 -298 -19z
m525 -401 l0 -220 -220 0 -220 0 0 220 0 220 220 0 220 0 0 -220z"/>
<path d="M2258 711 c-67 -60 -28 -166 62 -166 90 0 129 106 62 166 -20 18 -43
29 -62 29 -19 0 -42 -11 -62 -29z"/>
</g>
</svg>
